<svg width="30" height="30" viewBox="0 0 30 30" fill="none" xmlns="http://www.w3.org/2000/svg">
<path d="M22.5 3.75C21.5054 3.75 20.5516 4.14509 19.8483 4.84835C19.1451 5.55161 18.75 6.50544 18.75 7.5V22.5C18.75 23.4946 19.1451 24.4484 19.8483 25.1517C20.5516 25.8549 21.5054 26.25 22.5 26.25C23.4946 26.25 24.4484 25.8549 25.1517 25.1517C25.8549 24.4484 26.25 23.4946 26.25 22.5C26.25 21.5054 25.8549 20.5516 25.1517 19.8483C24.4484 19.1451 23.4946 18.75 22.5 18.75H7.5C6.50544 18.75 5.55161 19.1451 4.84835 19.8483C4.14509 20.5516 3.75 21.5054 3.75 22.5C3.75 23.4946 4.14509 24.4484 4.84835 25.1517C5.55161 25.8549 6.50544 26.25 7.5 26.25C8.49456 26.25 9.44839 25.8549 10.1517 25.1517C10.8549 24.4484 11.25 23.4946 11.25 22.5V7.5C11.25 6.50544 10.8549 5.55161 10.1517 4.84835C9.44839 4.14509 8.49456 3.75 7.5 3.75C6.50544 3.75 5.55161 4.14509 4.84835 4.84835C4.14509 5.55161 3.75 6.50544 3.75 7.5C3.75 8.49456 4.14509 9.44839 4.84835 10.1517C5.55161 10.8549 6.50544 11.25 7.5 11.25H22.5C23.4946 11.25 24.4484 10.8549 25.1517 10.1517C25.8549 9.44839 26.25 8.49456 26.25 7.5C26.25 6.50544 25.8549 5.55161 25.1517 4.84835C24.4484 4.14509 23.4946 3.75 22.5 3.75Z" stroke="#54BD95" stroke-width="2" stroke-linecap="round" stroke-linejoin="round"/>
</svg>
