<svg width="26" height="26" viewBox="0 0 26 26" fill="none" xmlns="http://www.w3.org/2000/svg">
<g clip-path="url(#clip0_0_39)">
<path d="M13.8627 9.78005C17.8637 10.8521 21.3968 10.64 21.7542 9.30638C22.1115 7.97271 19.1578 6.02248 15.1568 4.95042C11.1558 3.87836 7.62266 4.09043 7.26531 5.42409C6.90795 6.75776 9.86171 8.70799 13.8627 9.78005Z" stroke="#F8F8FA" stroke-width="1.66667" stroke-linecap="round" stroke-linejoin="round"/>
<path d="M20.244 14.9411C19.8859 16.2773 16.3772 16.4932 12.3525 15.4148C8.32777 14.3364 5.39703 12.395 5.75507 11.0588" stroke="#F8F8FA" stroke-width="1.66667" stroke-linecap="round" stroke-linejoin="round"/>
<path d="M7.26483 5.42432L4.24528 16.6935C3.88724 18.0296 6.81798 19.971 10.8427 21.0494C14.8674 22.1278 18.3761 21.9119 18.7342 20.5757L21.7537 9.3066" stroke="#F8F8FA" stroke-width="1.66667" stroke-linecap="round" stroke-linejoin="round"/>
</g>
<defs>
<clipPath id="clip0_0_39">
<rect width="20" height="20" fill="white" transform="translate(5.92889 0.752441) rotate(15)"/>
</clipPath>
</defs>
</svg>
