<svg width="23" height="30" viewBox="0 0 23 30" fill="none" xmlns="http://www.w3.org/2000/svg">
<path fill-rule="evenodd" clip-rule="evenodd" d="M17.0711 1.41723C18.9464 2.32466 20 3.5554 20 4.83871H10L0 4.83871C0 3.5554 1.05357 2.32466 2.92893 1.41722C4.8043 0.509791 7.34784 0 10 0C12.6522 0 15.1957 0.509791 17.0711 1.41723ZM2.92893 28.5828C1.05357 27.6753 0 26.4446 0 25.1613H10L20 25.1613C20 26.4446 18.9464 27.6753 17.0711 28.5828C15.1957 29.4902 12.6522 30 10 30C7.34783 30 4.8043 29.4902 2.92893 28.5828ZM23 17.4194V21.2903H17V17.4194H23ZM6 8.70968H0V12.5806H6V8.70968ZM11 8.70968H23V12.5806H11V8.70968ZM12 17.4194H0V21.2903H12V17.4194Z" fill="#A6A6A6"/>
</svg>
