<svg width="24" height="24" viewBox="0 0 24 24" fill="none" xmlns="http://www.w3.org/2000/svg">
<path fill-rule="evenodd" clip-rule="evenodd" d="M2.83333 11C2.83333 5.9374 6.93739 1.83334 12 1.83334C17.0626 1.83334 21.1667 5.9374 21.1667 11C21.1667 16.0626 17.0626 20.1667 12 20.1667C6.93739 20.1667 2.83333 16.0626 2.83333 11ZM12 0.166672C6.01692 0.166672 1.16667 5.01692 1.16667 11C1.16667 16.9831 6.01692 21.8333 12 21.8333C17.9831 21.8333 22.8333 16.9831 22.8333 11C22.8333 5.01692 17.9831 0.166672 12 0.166672ZM11.9301 14.6944L17.7196 8.69437L16.2804 7.30564L11.1148 12.6591L7.61369 9.93773L6.38631 11.5168L10.5968 14.7896L11.3062 15.341L11.9301 14.6944Z" fill="#2B9B5B"/>
</svg>
